#!OML:ASF G:\JayActor3\Patient Classification 1\Patient 1\Session 6\male.ASF
:FULLY-SPECIFIED
:DEGREES
1211
root -2.26447 15.7918 -10.1285 6.2002 -17.1773 -365.36
lowerback 7.6601 -1.29774 4.8488
upperback 4.96984 -1.46555 2.86863
thorax 0.812499 -0.681815 0.342034
lowerneck 5.30345 -4.6194 3.37155
upperneck -10.2326 -6.17309 -2.12104
head -4.53698 -3.08932 -0.961964
rclavicle -4.17448e-015 9.93923e-015
rhumerus -30.8365 18.4393 -94.3597
rradius 74.6425
rwrist 11.4673
rhand -33.6032 -5.89635
rfingers 7.12502
rthumb -6.79653 -35.7673
lclavicle -4.17448e-015 9.93923e-015
lhumerus -31.3763 -8.69618 92.9355
lradius 51.7039
lwrist 3.2515
lhand -40.261 -15.4507
lfingers 7.12502
lthumb -13.2194 14.1102
rfemur -16.2221 2.19221 35.0391
rtibia 43.8938
rfoot -34.0491 -21.1236
rtoes 0.687844
lfemur -34.1982 5.00604 -10.4228
ltibia 83.8561
lfoot -4.01773 2.65362
ltoes -8.61956
1212
root -2.30489 15.779 -10.0615 6.09313 -17.029 -365.437
lowerback 7.80286 -1.29281 4.91941
upperback 4.99704 -1.44598 2.91851
thorax 0.762858 -0.671982 0.355816
lowerneck 5.33378 -4.67491 3.36992
upperneck -10.2346 -6.24678 -2.11695
head -4.54607 -3.12552 -0.955023
rclavicle -4.42296e-014 3.29983e-014
rhumerus -30.6885 18.3751 -94.2745
rradius 74.5687
rwrist 11.4638
rhand -33.6165 -5.89765
rfingers 7.12502
rthumb -6.80942 -35.7681
lclavicle -4.42296e-014 3.29983e-014
lhumerus -31.5849 -8.61515 92.9066
lradius 51.6736
lwrist 3.42411
lhand -40.3271 -15.2119
lfingers 7.12502
lthumb -13.2831 14.3448
rfemur -15.6998 1.99518 35.2362
rtibia 43.7304
rfoot -34.2971 -21.1363
rtoes 0.825894
lfemur -35.6796 4.91837 -10.5615
ltibia 84.1343
lfoot -4.77526 2.63957
ltoes -9.43306
1213
root -2.34519 15.7669 -9.99252 5.97648 -16.8618 -365.514
lowerback 7.95296 -1.29193 5.00996
upperback 5.02397 -1.42964 2.96331
thorax 0.708385 -0.663325 0.353626
lowerneck 5.3659 -4.73636 3.37928
upperneck -10.2331 -6.3275 -2.11474
head -4.55501 -3.16548 -0.950178
rclavicle 2.15681e-014 4.65156e-014
rhumerus -30.5488 18.2885 -94.1918
rradius 74.4988
rwrist 11.4683
rhand -33.6354 -5.89751
rfingers 7.12502
rthumb -6.82761 -35.7674
lclavicle 2.15681e-014 4.65156e-014
lhumerus -31.803 -8.5697 92.8738
lradius 51.6577
lwrist 3.60271
lhand -40.3628 -14.9865
lfingers 7.12502
lthumb -13.3175 14.568
rfemur -15.1525 1.78211 35.43
rtibia 43.5433
rfoot -34.5171 -21.1735
rtoes 0.927786
lfemur -37.115 4.81644 -10.7216
ltibia 84.2425
lfoot -5.49587 2.65756
ltoes -10.1437
1214
root -2.38562 15.7553 -9.92089 5.85046 -16.7036 -365.591
lowerback 8.10406 -1.28748 5.11129
upperback 5.05382 -1.40763 3.00303
thorax 0.656375 -0.651478 0.339712
lowerneck 5.40226 -4.80121 3.4016
upperneck -10.2341 -6.41195 -2.11683
head -4.56669 -3.20754 -0.948674
rclavicle 2.49475e-014 1.98785e-015
rhumerus -30.4156 18.1891 -94.1121
rradius 74.4298
rwrist 11.4795
rhand -33.6644 -5.89852
rfingers 7.12502
rthumb -6.85558 -35.7675
lclavicle 2.49475e-014 1.98785e-015
lhumerus -32.0325 -8.55245 92.8338
lradius 51.6643
lwrist 3.77992
lhand -40.3588 -14.7697
lfingers 7.12502
lthumb -13.3136 14.785
rfemur -14.569 1.57661 35.6184
rtibia 43.3238
rfoot -34.7287 -21.2192
rtoes 1.04077
lfemur -38.4844 4.71935 -10.9048
ltibia 84.1801
lfoot -6.16048 2.71292
ltoes -10.8399
1215
root -2.42638 15.7445 -9.84644 5.71522 -16.5651 -365.667
lowerback 8.25421 -1.27813 5.21916
upperback 5.08801 -1.37871 3.03715
thorax 0.609497 -0.635863 0.31573
lowerneck 5.43907 -4.86717 3.43102
upperneck -10.234 -6.49722 -2.11955
head -4.5785 -3.25024 -0.948541
rclavicle -4.54223e-014 2.54444e-014
rhumerus -30.2873 18.0897 -94.0362
rradius 74.3578
rwrist 11.4978
rhand -33.7028 -5.89548
rfingers 7.12502
rthumb -6.89269 -35.7633
lclavicle -4.54223e-014 2.54444e-014
lhumerus -32.2777 -8.56415 92.7807
lradius 51.7071
lwrist 3.96661
lhand -40.3119 -14.541
lfingers 7.12502
lthumb -13.2684 15.0166
rfemur -13.9455 1.388 35.8003
rtibia 43.0689
rfoot -34.9241 -21.2804
rtoes 1.12287
lfemur -39.7762 4.64143 -11.1092
ltibia 83.9474
lfoot -6.7684 2.79196
ltoes -11.4013
1216
root -2.46761 15.7347 -9.76921 5.58289 -16.4533 -365.749
lowerback 8.39241 -1.26433 5.33758
upperback 5.12684 -1.34413 3.06845
thorax 0.574153 -0.616933 0.282134
lowerneck 5.47544 -4.92845 3.45926
upperneck -10.2398 -6.57612 -2.1196
head -4.59197 -3.28989 -0.9476
rclavicle -2.17669e-014 -3.89618e-014
rhumerus -30.1575 17.9981 -93.9658
rradius 74.2813
rwrist 11.5226
rhand -33.7539 -5.88902
rfingers 7.12502
rthumb -6.94204 -35.7552
lclavicle -2.17669e-014 -3.89618e-014
lhumerus -32.5369 -8.60049 92.7132
lradius 51.7921
lwrist 4.16557
lhand -40.2285 -14.299
lfingers 7.12502
lthumb -13.1881 15.2639
rfemur -13.29 1.22505 35.9848
rtibia 42.7755
rfoot -35.1188 -21.3451
rtoes 1.16223
lfemur -40.9947 4.60203 -11.3234
ltibia 83.5486
lfoot -7.32738 2.88266
ltoes -11.7683
1217
root -2.50937 15.7251 -9.68951 5.45557 -16.3675 -365.837
lowerback 8.5181 -1.24863 5.45888
upperback 5.17016 -1.30785 3.1004
thorax 0.550596 -0.596873 0.247093
lowerneck 5.50968 -4.98258 3.48075
upperneck -10.2522 -6.64599 -2.11714
head -4.60674 -3.32499 -0.945127
rclavicle 2.43511e-014 -5.24792e-014
rhumerus -30.0252 17.9271 -93.8984
rradius 74.201
rwrist 11.5549
rhand -33.8047 -5.88142
rfingers 7.12502
rthumb -6.99103 -35.746
lclavicle 2.43511e-014 -5.24792e-014
lhumerus -32.8079 -8.63766 92.6382
lradius 51.9235
lwrist 4.37846
lhand -40.1354 -14.0016
lfingers 7.12502
lthumb -13.0983 15.5671
rfemur -12.6088 1.08506 36.1718
rtibia 42.4464
rfoot -35.2969 -21.4262
rtoes 1.01213
lfemur -42.1395 4.56331 -11.554
ltibia 82.989
lfoot -7.84107 3.00534
ltoes -12.0593
1218
root -2.5518 15.7163 -9.60745 5.32874 -16.3094 -365.927
lowerback 8.63673 -1.23315 5.57628
upperback 5.21953 -1.27291 3.13441
thorax 0.537489 -0.577367 0.216187
lowerneck 5.5406 -5.02528 3.485
upperneck -10.2687 -6.70138 -2.10604
head -4.6206 -3.35275 -0.937626
rclavicle 5.11871e-014 -9.54166e-015
rhumerus -29.8882 17.8857 -93.8338
rradius 74.1154
rwrist 11.5947
rhand -33.8573 -5.864
rfingers 7.12502
rthumb -7.04184 -35.7269
lclavicle 5.11871e-014 -9.54166e-015
lhumerus -33.0902 -8.66224 92.5604
lradius 52.1022
lwrist 4.6014
lhand -40.0376 -13.6406
lfingers 7.12502
lthumb -13.0041 15.9341
rfemur -11.896 0.970197 36.3604
rtibia 42.0809
rfoot -35.4454 -21.5217
rtoes 0.720053
lfemur -43.1989 4.55781 -11.7976
ltibia 82.2678
lfoot -8.32077 3.13638
ltoes -12.3579
1219
root -2.59478 15.7086 -9.52316 5.20938 -16.2672 -366.015
lowerback 8.74184 -1.22112 5.68983
upperback 5.27062 -1.24383 3.1678
thorax 0.533596 -0.560657 0.186933
lowerneck 5.57055 -5.05832 3.47666
upperneck -10.2906 -6.7444 -2.0885
head -4.63494 -3.37426 -0.926453
rclavicle 3.3694e-014 -2.8625e-014
rhumerus -29.7475 17.8697 -93.7744
rradius 74.0255
rwrist 11.6373
rhand -33.911 -5.84026
rfingers 7.12502
rthumb -7.09364 -35.7014
lclavicle 3.3694e-014 -2.8625e-014
lhumerus -33.3866 -8.68649 92.4829
lradius 52.3302
lwrist 4.85336
lhand -39.9396 -13.2317
lfingers 7.12502
lthumb -12.9096 16.3489
rfemur -11.1643 0.873627 36.5458
rtibia 41.6803
rfoot -35.5663 -21.6347
rtoes 0.282744
lfemur -44.1827 4.57064 -12.0598
ltibia 81.3881
lfoot -8.75741 3.2755
ltoes -12.7613
1220
root -2.6381 15.7017 -9.43672 5.09707 -16.2341 -366.095
lowerback 8.83227 -1.21155 5.80042
upperback 5.32148 -1.21925 3.19722
thorax 0.537449 -0.546003 0.155278
lowerneck 5.60368 -5.08571 3.46357
upperneck -10.3167 -6.77954 -2.06464
head -4.65065 -3.39199 -0.912659
rclavicle -2.98177e-016 2.74323e-014
rhumerus -29.6043 17.8673 -93.7212
rradius 73.9312
rwrist 11.6752
rhand -33.9641 -5.81241
rfingers 7.12502
rthumb -7.14491 -35.6718
lclavicle -2.98177e-016 2.74323e-014
lhumerus -33.6938 -8.71395 92.4101
lradius 52.5978
lwrist 5.11982
lhand -39.8234 -12.7875
lfingers 7.12502
lthumb -12.7975 16.8002
rfemur -10.4157 0.790731 36.7224
rtibia 41.2442
rfoot -35.6541 -21.758
rtoes -0.170686
lfemur -45.0922 4.57815 -12.3434
ltibia 80.3553
lfoot -9.14692 3.42449
ltoes -13.2858
1221
root -2.6817 15.6961 -9.34788 4.9949 -16.2061 -366.171
lowerback 8.90261 -1.20335 5.91605
upperback 5.37098 -1.19761 3.22191
thorax 0.55078 -0.532388 0.11578
lowerneck 5.63837 -5.11265 3.44111
upperneck -10.342 -6.81381 -2.03092
head -4.66539 -3.40939 -0.893884
rclavicle -3.98563e-014 1.59028e-014
rhumerus -29.4604 17.871 -93.6739
rradius 73.8335
rwrist 11.7056
rhand -34.0239 -5.77973
rfingers 7.12502
rthumb -7.20261 -35.6372
lclavicle -3.98563e-014 1.59028e-014
lhumerus -34.0234 -8.79773 92.3388
lradius 52.921
lwrist 5.43553
lhand -39.6626 -12.3209
lfingers 7.12502
lthumb -12.6425 17.2765
rfemur -9.6504 0.721685 36.8921
rtibia 40.7714
rfoot -35.7134 -21.8807
rtoes -0.5617
lfemur -45.9258 4.5897 -12.6419
ltibia 79.1728
lfoot -9.48886 3.56021
ltoes -13.9097
1222
root -2.72552 15.6913 -9.25678 4.90692 -16.181 -366.241
lowerback 8.95095 -1.19424 6.03639
upperback 5.41663 -1.17595 3.24179
thorax 0.572114 -0.518376 0.0682942
lowerneck 5.67684 -5.14224 3.43177
upperneck -10.3696 -6.8511 -2.00442
head -4.68285 -3.42842 -0.87951
rclavicle -4.18442e-014 -3.33958e-014
rhumerus -29.3192 17.8762 -93.631
rradius 73.7367
rwrist 11.7213
rhand -34.0973 -5.75967
rfingers 7.12502
rthumb -7.2735 -35.6147
lclavicle -4.18442e-014 -3.33958e-014
lhumerus -34.369 -8.92898 92.2686
lradius 53.288
lwrist 5.78553
lhand -39.4315 -11.8317
lfingers 7.12502
lthumb -12.4197 17.7793
rfemur -8.87525 0.670127 37.0554
rtibia 40.2645
rfoot -35.7503 -22.009
rtoes -0.889503
lfemur -46.6915 4.60658 -12.9537
ltibia 77.8504
lfoot -9.77128 3.67941
ltoes -14.6596
